<svg xmlns="http://www.w3.org/2000/svg" xmlns:xlink="http://www.w3.org/1999/xlink" version="1.1" x="0px" y="0px" viewBox="0 0 100 125" enable-background="new 0 0 100 100" xml:space="preserve"><path fill="#000000" d="M27.5,85.957c13.923,8.039,31.077,8.039,45,0C67.25,76.863,62,67.77,56.75,58.678  c-4.177,2.41-9.323,2.41-13.5,0C38,67.77,32.75,76.863,27.5,85.957z"/><path fill="#000000" d="M27.5,8.014C13.577,16.053,5,30.909,5,46.985c10.5,0,21,0,31.5,0c0-4.823,2.573-9.28,6.75-11.691  C38,26.201,32.75,17.107,27.5,8.014z"/><circle fill="#000000" cx="50" cy="46.985" r="9"/><path fill="#000000" d="M95,46.985c0-16.077-8.577-30.933-22.5-38.971c-5.25,9.093-10.5,18.187-15.75,27.28  c4.177,2.412,6.75,6.868,6.75,11.691C74,46.985,84.5,46.985,95,46.985z"/></svg>
